<?xml version="1.0" encoding="UTF-8" standalone="no"?>
<!-- Created with Inkscape (http://www.inkscape.org/) -->

<svg
   xmlns:dc="http://purl.org/dc/elements/1.1/"
   xmlns:cc="http://creativecommons.org/ns#"
   xmlns:rdf="http://www.w3.org/1999/02/22-rdf-syntax-ns#"
   xmlns:svg="http://www.w3.org/2000/svg"
   xmlns="http://www.w3.org/2000/svg"
   xmlns:sodipodi="http://sodipodi.sourceforge.net/DTD/sodipodi-0.dtd"
   xmlns:inkscape="http://www.inkscape.org/namespaces/inkscape"
   width="1000"
   height="300"
   viewBox="0 0 264.58333 79.375002"
   version="1.1"
   id="svg8"
   inkscape:version="0.92.3 (2405546, 2018-03-11)"
   sodipodi:docname="pipeline.svg">
  <defs
     id="defs2" />
  <sodipodi:namedview
     id="base"
     pagecolor="#ffffff"
     bordercolor="#666666"
     borderopacity="1.0"
     inkscape:pageopacity="0.0"
     inkscape:pageshadow="2"
     inkscape:zoom="1.979899"
     inkscape:cx="423.67847"
     inkscape:cy="146.28603"
     inkscape:document-units="mm"
     inkscape:current-layer="layer1"
     showgrid="false"
     units="px"
     inkscape:window-width="3706"
     inkscape:window-height="2049"
     inkscape:window-x="134"
     inkscape:window-y="55"
     inkscape:window-maximized="1" />
  <metadata
     id="metadata5">
    <rdf:RDF>
      <cc:Work
         rdf:about="">
        <dc:format>image/svg+xml</dc:format>
        <dc:type
           rdf:resource="http://purl.org/dc/dcmitype/StillImage" />
        <dc:title></dc:title>
      </cc:Work>
    </rdf:RDF>
  </metadata>
  <g
     inkscape:label="Layer 1"
     inkscape:groupmode="layer"
     id="layer1"
     transform="translate(0,-217.62502)">
    <rect
       style="opacity:1;fill:#1d1d1d;fill-opacity:1;stroke:none;stroke-width:0.03691839;stroke-linecap:round;stroke-miterlimit:4;stroke-dasharray:none;stroke-dashoffset:0;stroke-opacity:1"
       id="rect815"
       width="264.58334"
       height="79.375"
       x="0"
       y="217.62502" />
    <path
       style="opacity:1;fill:none;fill-opacity:0.27186764;stroke:#ffffff;stroke-width:0.20318371;stroke-linecap:round;stroke-miterlimit:4;stroke-dasharray:none;stroke-dashoffset:0;stroke-opacity:1"
       d="m 38.372004,240.65874 c -1.619856,0 -2.932106,2.11375 -3.00306,4.78333 h -3.868237 c -0.09844,-1.03506 -0.632332,-1.82217 -1.281908,-1.82217 h -3.373794 c -0.649574,0 -1.183459,0.78711 -1.281907,1.82217 h -0.13428 c -2.220863,0 -4.008778,1.78791 -4.008778,4.00877 v 21.39177 c 0,2.22085 1.787915,4.00878 4.008778,4.00878 h 33.692137 c 2.220865,0 4.008778,-1.78793 4.008778,-4.00878 v -21.39177 c 0,-2.22086 -1.787913,-4.00877 -4.008778,-4.00877 h -9.940126 c -0.07095,-2.66958 -1.3834,-4.78333 -3.003258,-4.78333 z m 3.915409,6.83171 c 6.842247,-9e-5 12.389035,5.54661 12.389046,12.38885 -1.5e-5,6.84225 -5.546803,12.38895 -12.389046,12.38885 -6.842164,-10e-6 -12.388833,-5.54668 -12.388847,-12.38885 1.2e-5,-6.84216 5.546682,-12.38884 12.388847,-12.38885 z m 0,2.8451 c -5.2708,9e-5 -9.543576,4.27295 -9.543553,9.54375 -2e-5,5.27081 4.272755,9.54366 9.543553,9.54374 5.270876,3e-5 9.543771,-4.27286 9.543751,-9.54374 2.3e-5,-5.27087 -4.272875,-9.54377 -9.543751,-9.54375 z"
       id="rect921"
       inkscape:connector-curvature="0"
       sodipodi:nodetypes="sccsscsssssssscsscccccccccc" />
    <circle
       style="opacity:1;fill:#ffffff;fill-opacity:1;stroke:#ffffff;stroke-width:0.20045497;stroke-linecap:round;stroke-miterlimit:4;stroke-dasharray:none;stroke-dashoffset:0;stroke-opacity:1"
       id="path948"
       cx="47.199554"
       cy="255.18445"
       r="0.67074841" />
    <path
       style="opacity:1;fill:none;fill-opacity:0.47281327;stroke:#ffffff;stroke-width:0.20326515;stroke-linecap:round;stroke-miterlimit:4;stroke-dasharray:none;stroke-dashoffset:0;stroke-opacity:1"
       d="m 118.4851,240.65878 c -1.5458,0 -2.79024,1.24444 -2.79024,2.79023 v 24.22542 c 0,1.54578 1.24444,2.79022 2.79024,2.79022 h 40.59502 c 1.54578,0 2.79022,-1.24444 2.79022,-2.79022 v -24.22542 c 0,-1.54579 -1.24444,-2.79023 -2.79022,-2.79023 z m 0.36675,1.72046 h 39.87403 c 0.7729,0 1.39512,0.62222 1.39512,1.39511 v 21.20848 c 0,0.77289 -0.62222,1.39512 -1.39512,1.39512 h -39.87403 c -0.77289,0 -1.39511,-0.62223 -1.39511,-1.39512 v -21.20848 c 0,-0.77289 0.62222,-1.39511 1.39511,-1.39511 z"
       id="rect950"
       inkscape:connector-curvature="0" />
    <path
       style="fill:none;fill-opacity:0.47281327;stroke:#ffffff;stroke-width:0.20326515;stroke-linecap:round;stroke-linejoin:round;stroke-miterlimit:4;stroke-dasharray:none;stroke-opacity:1"
       d="m 131.89713,271.39843 -6.25235,3.45292 h 26.32008 l -6.25335,-3.45292 z"
       id="path955"
       inkscape:connector-curvature="0" />
    <path
       style="fill:none;stroke:#ffffff;stroke-width:0.20326515;stroke-linecap:butt;stroke-linejoin:miter;stroke-miterlimit:4;stroke-dasharray:none;stroke-opacity:1"
       d="m 147.74236,246.93202 h 9.97232"
       id="path4664"
       inkscape:connector-curvature="0" />
    <path
       inkscape:connector-curvature="0"
       id="path4666"
       d="m 147.74236,246.93202 h 9.97232"
       style="fill:none;stroke:#ffffff;stroke-width:0.20326515;stroke-linecap:butt;stroke-linejoin:miter;stroke-miterlimit:4;stroke-dasharray:none;stroke-opacity:1" />
    <path
       style="fill:none;stroke:#ffffff;stroke-width:0.20326515;stroke-linecap:butt;stroke-linejoin:miter;stroke-miterlimit:4;stroke-dasharray:none;stroke-opacity:1"
       d="m 147.74236,249.04935 h 9.97232"
       id="path4668"
       inkscape:connector-curvature="0" />
    <path
       inkscape:connector-curvature="0"
       id="path4670"
       d="m 147.74236,251.16671 h 9.97232"
       style="fill:none;stroke:#ffffff;stroke-width:0.20326515;stroke-linecap:butt;stroke-linejoin:miter;stroke-miterlimit:4;stroke-dasharray:none;stroke-opacity:1" />
    <path
       style="fill:none;stroke:#ffffff;stroke-width:0.20326515;stroke-linecap:butt;stroke-linejoin:miter;stroke-miterlimit:4;stroke-dasharray:none;stroke-opacity:1"
       d="m 147.74236,253.28407 h 9.97232"
       id="path4672"
       inkscape:connector-curvature="0" />
    <path
       inkscape:connector-curvature="0"
       id="path4674"
       d="m 147.74236,259.63614 h 9.97232"
       style="fill:none;stroke:#ffffff;stroke-width:0.20326515;stroke-linecap:butt;stroke-linejoin:miter;stroke-miterlimit:4;stroke-dasharray:none;stroke-opacity:1" />
    <path
       style="fill:none;stroke:#ffffff;stroke-width:0.20326515;stroke-linecap:butt;stroke-linejoin:miter;stroke-miterlimit:4;stroke-dasharray:none;stroke-opacity:1"
       d="m 147.74236,261.7535 h 9.97232"
       id="path4676"
       inkscape:connector-curvature="0" />
    <path
       inkscape:connector-curvature="0"
       id="path4678"
       d="m 147.84592,261.8259 v -2.2023"
       style="fill:none;stroke:#ffffff;stroke-width:0.20326515;stroke-linecap:butt;stroke-linejoin:miter;stroke-miterlimit:4;stroke-dasharray:none;stroke-opacity:1" />
    <path
       style="fill:none;stroke:#ffffff;stroke-width:0.20326515;stroke-linecap:butt;stroke-linejoin:miter;stroke-miterlimit:4;stroke-dasharray:none;stroke-opacity:1"
       d="m 157.61062,261.8259 v -2.2023"
       id="path4680"
       inkscape:connector-curvature="0" />
    <circle
       style="opacity:1;fill:#1d1d1d;fill-opacity:1;stroke:#ffffff;stroke-width:0.20326515;stroke-linecap:round;stroke-miterlimit:4;stroke-dasharray:none;stroke-dashoffset:0;stroke-opacity:1"
       id="path4682"
       cx="149.0752"
       cy="246.92526"
       r="0.3676134" />
    <circle
       r="0.3676134"
       cy="249.04259"
       cx="153.8392"
       id="circle4684"
       style="opacity:1;fill:#1d1d1d;fill-opacity:1;stroke:#ffffff;stroke-width:0.20326515;stroke-linecap:round;stroke-miterlimit:4;stroke-dasharray:none;stroke-dashoffset:0;stroke-opacity:1" />
    <circle
       style="opacity:1;fill:#1d1d1d;fill-opacity:1;stroke:#ffffff;stroke-width:0.20326515;stroke-linecap:round;stroke-miterlimit:4;stroke-dasharray:none;stroke-dashoffset:0;stroke-opacity:1"
       id="circle4686"
       cx="150.5687"
       cy="251.1599"
       r="0.3676134" />
    <circle
       r="0.3676134"
       cy="253.27722"
       cx="155.42722"
       id="circle4688"
       style="opacity:1;fill:#1d1d1d;fill-opacity:1;stroke:#ffffff;stroke-width:0.20326515;stroke-linecap:round;stroke-miterlimit:4;stroke-dasharray:none;stroke-dashoffset:0;stroke-opacity:1" />
    <rect
       style="opacity:1;fill:none;fill-opacity:1;stroke:#ffffff;stroke-width:0.20326515;stroke-linecap:round;stroke-miterlimit:4;stroke-dasharray:none;stroke-dashoffset:0;stroke-opacity:1"
       id="rect4690"
       width="22.32416"
       height="17.779121"
       x="120.37635"
       y="245.47989" />
    <path
       style="fill:none;stroke:#ffffff;stroke-width:0.20326515;stroke-linecap:butt;stroke-linejoin:miter;stroke-miterlimit:4;stroke-dasharray:none;stroke-opacity:1"
       d="m 120.37644,260.3299 8.15452,-8.66987 14.18756,7.3422"
       id="path4692"
       inkscape:connector-curvature="0"
       sodipodi:nodetypes="ccc" />
    <path
       style="fill:none;stroke:#ffffff;stroke-width:0.20326515;stroke-linecap:butt;stroke-linejoin:miter;stroke-miterlimit:4;stroke-dasharray:none;stroke-opacity:1"
       d="m 136.83267,255.96208 2.1674,-2.29786 3.72464,1.9263"
       id="path4701"
       inkscape:connector-curvature="0"
       sodipodi:nodetypes="ccc" />
    <path
       style="fill:none;stroke:#ffffff;stroke-width:0.4064;stroke-linecap:butt;stroke-linejoin:round;stroke-miterlimit:4;stroke-dasharray:0.4064, 1.6256;stroke-dashoffset:0;stroke-opacity:1"
       d="M 69.024707,258.1123 H 108.58063"
       id="path4703"
       inkscape:connector-curvature="0" />
    <g
       aria-label="?"
       transform="matrix(1.0962026,0.37357089,-0.37357089,1.0962026,-621.56305,-259.33223)"
       style="font-style:normal;font-variant:normal;font-weight:bold;font-stretch:normal;font-size:40px;line-height:1.25;font-family:Lato;-inkscape-font-specification:'Lato Bold';letter-spacing:0px;word-spacing:0px;opacity:0.2;fill:none;fill-opacity:1;stroke:#ffffff;stroke-width:0.17545851;stroke-miterlimit:4;stroke-dasharray:none;stroke-opacity:1"
       id="flowRoot4726">
      <path
         d="m 829.57008,175.025 q 0.68,-0.6 1.48,-1.14 0.82,-0.54 1.76,-0.94 0.94,-0.4 2.04,-0.62 1.1,-0.24 2.38,-0.24 1.74,0 3.16,0.48 1.44,0.48 2.46,1.38 1.02,0.88 1.58,2.14 0.56,1.26 0.56,2.82 0,1.52 -0.44,2.64 -0.44,1.1 -1.12,1.92 -0.66,0.82 -1.44,1.42 -0.78,0.6 -1.48,1.14 -0.7,0.52 -1.22,1.04 -0.5,0.5 -0.6,1.14 l -0.46,2.92 h -3.38 l -0.34,-3.26 q -0.02,-0.1 -0.02,-0.16 0,-0.08 0,-0.18 0,-0.88 0.44,-1.52 0.44,-0.66 1.1,-1.22 0.66,-0.58 1.42,-1.12 0.76,-0.54 1.42,-1.16 0.66,-0.64 1.1,-1.44 0.44,-0.8 0.44,-1.88 0,-0.72 -0.28,-1.28 -0.26,-0.58 -0.74,-0.98 -0.48,-0.42 -1.16,-0.64 -0.66,-0.22 -1.44,-0.22 -1.14,0 -1.94,0.26 -0.78,0.24 -1.34,0.56 -0.54,0.3 -0.92,0.56 -0.38,0.24 -0.68,0.24 -0.72,0 -1.04,-0.6 z m 3.78,23.58 q 0,-0.62 0.22,-1.18 0.24,-0.56 0.64,-0.96 0.42,-0.4 0.98,-0.64 0.56,-0.24 1.2,-0.24 0.62,0 1.18,0.24 0.56,0.24 0.96,0.64 0.4,0.4 0.64,0.96 0.24,0.56 0.24,1.18 0,0.64 -0.24,1.2 -0.24,0.54 -0.64,0.94 -0.4,0.4 -0.96,0.62 -0.56,0.24 -1.18,0.24 -0.64,0 -1.2,-0.24 -0.56,-0.22 -0.98,-0.62 -0.4,-0.4 -0.64,-0.94 -0.22,-0.56 -0.22,-1.2 z"
         style="fill:none;stroke:#ffffff;stroke-width:0.17545851;stroke-miterlimit:4;stroke-dasharray:none;stroke-opacity:1"
         id="path4734"
         inkscape:connector-curvature="0" />
    </g>
    <g
       id="g4739"
       style="font-style:normal;font-variant:normal;font-weight:bold;font-stretch:normal;font-size:40px;line-height:1.25;font-family:Lato;-inkscape-font-specification:'Lato Bold';letter-spacing:0px;word-spacing:0px;opacity:0.6;fill:none;fill-opacity:1;stroke:#ffffff;stroke-width:0.15080731;stroke-miterlimit:4;stroke-dasharray:none;stroke-opacity:1"
       transform="matrix(1.3074114,0.32588667,-0.32588667,1.3074114,-807.31061,-258.87113)"
       aria-label="?">
      <path
         inkscape:connector-curvature="0"
         id="path4737"
         style="fill:none;stroke:#ffffff;stroke-width:0.15080731;stroke-miterlimit:4;stroke-dasharray:none;stroke-opacity:1"
         d="m 829.57008,175.025 q 0.68,-0.6 1.48,-1.14 0.82,-0.54 1.76,-0.94 0.94,-0.4 2.04,-0.62 1.1,-0.24 2.38,-0.24 1.74,0 3.16,0.48 1.44,0.48 2.46,1.38 1.02,0.88 1.58,2.14 0.56,1.26 0.56,2.82 0,1.52 -0.44,2.64 -0.44,1.1 -1.12,1.92 -0.66,0.82 -1.44,1.42 -0.78,0.6 -1.48,1.14 -0.7,0.52 -1.22,1.04 -0.5,0.5 -0.6,1.14 l -0.46,2.92 h -3.38 l -0.34,-3.26 q -0.02,-0.1 -0.02,-0.16 0,-0.08 0,-0.18 0,-0.88 0.44,-1.52 0.44,-0.66 1.1,-1.22 0.66,-0.58 1.42,-1.12 0.76,-0.54 1.42,-1.16 0.66,-0.64 1.1,-1.44 0.44,-0.8 0.44,-1.88 0,-0.72 -0.28,-1.28 -0.26,-0.58 -0.74,-0.98 -0.48,-0.42 -1.16,-0.64 -0.66,-0.22 -1.44,-0.22 -1.14,0 -1.94,0.26 -0.78,0.24 -1.34,0.56 -0.54,0.3 -0.92,0.56 -0.38,0.24 -0.68,0.24 -0.72,0 -1.04,-0.6 z m 3.78,23.58 q 0,-0.62 0.22,-1.18 0.24,-0.56 0.64,-0.96 0.42,-0.4 0.98,-0.64 0.56,-0.24 1.2,-0.24 0.62,0 1.18,0.24 0.56,0.24 0.96,0.64 0.4,0.4 0.64,0.96 0.24,0.56 0.24,1.18 0,0.64 -0.24,1.2 -0.24,0.54 -0.64,0.94 -0.4,0.4 -0.96,0.62 -0.56,0.24 -1.18,0.24 -0.64,0 -1.2,-0.24 -0.56,-0.22 -0.98,-0.62 -0.4,-0.4 -0.64,-0.94 -0.22,-0.56 -0.22,-1.2 z" />
    </g>
    <g
       aria-label="?"
       transform="matrix(1.5360823,0.21760423,-0.21760423,1.5360823,-1018.6749,-210.93265)"
       style="font-style:normal;font-variant:normal;font-weight:bold;font-stretch:normal;font-size:40px;line-height:1.25;font-family:Lato;-inkscape-font-specification:'Lato Bold';letter-spacing:0px;word-spacing:0px;fill:none;fill-opacity:1;stroke:#ffffff;stroke-width:0.13097689;stroke-miterlimit:4;stroke-dasharray:none;stroke-opacity:1"
       id="g4743">
      <path
         d="m 829.57008,175.025 q 0.68,-0.6 1.48,-1.14 0.82,-0.54 1.76,-0.94 0.94,-0.4 2.04,-0.62 1.1,-0.24 2.38,-0.24 1.74,0 3.16,0.48 1.44,0.48 2.46,1.38 1.02,0.88 1.58,2.14 0.56,1.26 0.56,2.82 0,1.52 -0.44,2.64 -0.44,1.1 -1.12,1.92 -0.66,0.82 -1.44,1.42 -0.78,0.6 -1.48,1.14 -0.7,0.52 -1.22,1.04 -0.5,0.5 -0.6,1.14 l -0.46,2.92 h -3.38 l -0.34,-3.26 q -0.02,-0.1 -0.02,-0.16 0,-0.08 0,-0.18 0,-0.88 0.44,-1.52 0.44,-0.66 1.1,-1.22 0.66,-0.58 1.42,-1.12 0.76,-0.54 1.42,-1.16 0.66,-0.64 1.1,-1.44 0.44,-0.8 0.44,-1.88 0,-0.72 -0.28,-1.28 -0.26,-0.58 -0.74,-0.98 -0.48,-0.42 -1.16,-0.64 -0.66,-0.22 -1.44,-0.22 -1.14,0 -1.94,0.26 -0.78,0.24 -1.34,0.56 -0.54,0.3 -0.92,0.56 -0.38,0.24 -0.68,0.24 -0.72,0 -1.04,-0.6 z m 3.78,23.58 q 0,-0.62 0.22,-1.18 0.24,-0.56 0.64,-0.96 0.42,-0.4 0.98,-0.64 0.56,-0.24 1.2,-0.24 0.62,0 1.18,0.24 0.56,0.24 0.96,0.64 0.4,0.4 0.64,0.96 0.24,0.56 0.24,1.18 0,0.64 -0.24,1.2 -0.24,0.54 -0.64,0.94 -0.4,0.4 -0.96,0.62 -0.56,0.24 -1.18,0.24 -0.64,0 -1.2,-0.24 -0.56,-0.22 -0.98,-0.62 -0.4,-0.4 -0.64,-0.94 -0.22,-0.56 -0.22,-1.2 z"
         style="fill:none;stroke:#ffffff;stroke-width:0.13097689;stroke-miterlimit:4;stroke-dasharray:none;stroke-opacity:1"
         id="path4741"
         inkscape:connector-curvature="0" />
    </g>
    <path
       style="fill:none;stroke:#ffffff;stroke-width:0.2032;stroke-linecap:round;stroke-linejoin:round;stroke-miterlimit:4;stroke-dasharray:none;stroke-opacity:1"
       d="m 107.93934,260.06288 1.94923,-1.94923 -1.94923,-1.94872"
       id="path4749"
       inkscape:connector-curvature="0"
       sodipodi:nodetypes="ccc" />
    <path
       inkscape:connector-curvature="0"
       id="path4756"
       d="m 167.44978,258.1123 h 39.55593"
       style="fill:none;stroke:#ffffff;stroke-width:0.4064;stroke-linecap:butt;stroke-linejoin:round;stroke-miterlimit:4;stroke-dasharray:0.4064, 1.6256;stroke-dashoffset:0;stroke-opacity:1" />
    <path
       sodipodi:nodetypes="ccc"
       inkscape:connector-curvature="0"
       id="path4758"
       d="m 205.83525,260.06288 1.94923,-1.94923 -1.94923,-1.94872"
       style="fill:none;stroke:#ffffff;stroke-width:0.2032;stroke-linecap:round;stroke-linejoin:round;stroke-miterlimit:4;stroke-dasharray:none;stroke-opacity:1" />
  </g>
</svg>
