<?xml version="1.0" encoding="UTF-8" standalone="no"?>
<svg
   xmlns:dc="http://purl.org/dc/elements/1.1/"
   xmlns:cc="http://creativecommons.org/ns#"
   xmlns:rdf="http://www.w3.org/1999/02/22-rdf-syntax-ns#"
   xmlns:svg="http://www.w3.org/2000/svg"
   xmlns="http://www.w3.org/2000/svg"
   width="128"
   height="128"
   viewBox="0 0 33.866666 33.866668"
   version="1.1"
   id="svg854">
  <defs
     id="defs848" />
  <metadata
     id="metadata851">
    <rdf:RDF>
      <cc:Work
         rdf:about="">
        <dc:format>image/svg+xml</dc:format>
        <dc:type
           rdf:resource="http://purl.org/dc/dcmitype/StillImage" />
        <dc:title></dc:title>
      </cc:Work>
    </rdf:RDF>
  </metadata>
  <g
     id="layer1"
     transform="translate(0,-263.13332)">
    <g
       id="g26"
       transform="matrix(0.27873662,0,0,-0.2787364,16.93333,263.30026)"
       style="fill:#9f9f9f;fill-opacity:1;stroke:#000000;stroke-width:0.72465628;stroke-miterlimit:4;stroke-dasharray:none;stroke-opacity:1">
      <path
         style="fill:none;fill-opacity:1;stroke:#ffffff;stroke-width:0.72465628;stroke-linejoin:round;stroke-miterlimit:4;stroke-dasharray:none;stroke-opacity:1"
         id="path1517"
         d="m -12.470013,-21.312263 v -12.339989 h -24.679461 v -12.339489 h -12.33948 V -58.60572 h -10.551789 l -0.17381,-1.86539 c -0.579747,-6.22857 0.275048,-12.461979 2.847929,-18.151889 l 1.10931,-2.256465 0.12474,-0.21113 c 7.6121,-12.926409 20.97935,-18.373238 35.549221,-18.373238 28.20165,0 51.460331,12.597909 62.143661,39.206912 7.13966,-0.37324 14.44276,1.73781 17.93564,8.555029 l 0.89205,1.74116 -1.69516,0.97742 c -4.13021,2.3839 -9.63197,2.71 -14.31732,1.33169 -0.57714,4.98008 -3.84994,9.349259 -7.74119,12.475979 l -1.54537,1.24223 -1.29744,-1.50039 c -2.60559,-3.01338 -3.38229,-8.024129 -3.02684,-11.874289 0.26199,-2.83069 1.15129,-5.70261 2.89342,-7.97685 -1.32283,-0.795409 -2.8275,-1.428389 -4.168381,-1.882769 -2.7286,-0.92445 -5.69222,-1.43801 -8.57342,-1.43801 h -6.23875 v 12.614499 H 2.3375569 v 24.678958 z m 2.05658,-2.05659 H 0.2814869 V -34.063262 H -10.413433 Z m -24.679971,-12.339469 h 10.695431 v -10.694419 h -10.695431 z m 12.340491,0 h 10.69493 v -10.694419 h -10.69493 z m 12.33948,0 H 0.2814869 V -46.402741 H -10.413433 Z m -37.018941,-12.339479 h 10.69442 V -58.74222 h -10.69442 z m 12.33897,0 h 10.695431 V -58.74222 h -10.695431 z m 12.340491,0 h 10.69493 V -58.74222 h -10.69493 z m 12.33948,0 H 0.2814869 V -58.74222 H -10.413433 Z m 12.3394699,0 H 12.620967 V -58.74222 H 1.9260369 Z M -25.067653,-76.081799 c 1.62932,0 2.95017,-1.32138 2.95017,-2.950175 0,-1.62931 -1.32085,-2.95017 -2.95017,-2.95017 -1.62957,0 -2.95016,1.32086 -2.95016,2.95017 0,1.628795 1.32059,2.950175 2.95016,2.950175 z m -5.705561,-7.934934 c 2.231581,-5.1455 6.242341,-9.85938 13.548991,-13.326619 -1.11343,-0.0419 -2.23235,-0.0636 -3.35913,-0.0639 -15.262951,0.0948 -23.506151,5.250329 -30.206621,11.946869 2.01014,-0.10679 3.92591,-0.16052 5.74289,-0.16052 1.57644,0 3.07848,0.0413 4.50678,0.12167 3.79048,0.21253 7.05288,0.70749 9.76709,1.4825 z" />
      <ellipse
         ry="0.8607372"
         rx="0.86073655"
         transform="scale(1,-1)"
         cy="77.808617"
         cx="-23.87537"
         id="path1567"
         style="opacity:1;fill:#ffffff;fill-opacity:1;stroke:none;stroke-width:0.83874643;stroke-linecap:round;stroke-linejoin:round;stroke-miterlimit:4;stroke-dasharray:none;stroke-dashoffset:0;stroke-opacity:1" />
    </g>
  </g>
</svg>
