<svg xmlns="http://www.w3.org/2000/svg" viewBox="0 0 33.867 33.867" height="128" width="128"><path d="M0 0c-33.347 0-60.388-27.035-60.388-60.388 0-26.68 17.303-49.316 41.297-57.301 3.018-.559 4.126 1.31 4.126 2.905 0 1.439-.056 6.197-.082 11.243-16.8-3.653-20.345 7.125-20.345 7.125-2.747 6.979-6.705 8.836-6.705 8.836-5.479 3.748.413 3.671.413 3.671 6.064-.426 9.257-6.224 9.257-6.224 5.386-9.231 14.127-6.562 17.573-5.019.543 3.902 2.107 6.567 3.834 8.075-13.413 1.526-27.513 6.705-27.513 29.844 0 6.592 2.359 11.98 6.222 16.209-.627 1.521-2.694 7.663.586 15.981 0 0 5.071 1.622 16.61-6.191 4.817 1.338 9.983 2.009 15.115 2.033 5.132-.024 10.302-.695 15.128-2.033 11.526 7.813 16.59 6.191 16.59 6.191 3.287-8.318 1.22-14.46.593-15.981 3.872-4.229 6.214-9.617 6.214-16.209 0-23.195-14.127-28.301-27.574-29.796 2.166-1.874 4.096-5.549 4.096-11.183 0-8.08-.069-14.583-.069-16.572 0-1.608 1.086-3.49 4.147-2.898 23.982 7.994 41.263 30.622 41.263 57.294C60.388-27.035 33.351 0 0 0" fill="none" stroke="#fff" stroke-width=".928" transform="matrix(.21907 0 0 -.21907 16.933 3.521)"/><path d="M8.715 22.515c-.03.066-.133.086-.227.04-.096-.043-.15-.132-.119-.198.029-.068.132-.086.228-.041.096.043.15.133.118.2M9.25 23.113c-.062.058-.186.031-.27-.061-.086-.092-.102-.216-.038-.275.065-.059.185-.031.271.061.087.093.104.216.038.275M9.772 23.875c-.08.056-.214.003-.295-.114-.081-.118-.081-.26.002-.316.081-.056.212-.005.295.111.081.12.081.261-.002.319M10.487 24.61c-.073.08-.227.06-.34-.05-.116-.106-.148-.258-.076-.338.074-.08.23-.057.343.05.115.107.15.26.073.339M11.473 25.038c-.033.104-.181.15-.33.107-.15-.046-.248-.167-.218-.271.03-.105.18-.154.331-.107.15.045.248.166.217.271M12.555 25.118c.004.109-.123.2-.28.201-.158.004-.287-.085-.288-.192 0-.11.124-.2.282-.202.157-.004.286.084.286.193M13.563 24.946c.019.106-.09.216-.247.245-.153.028-.296-.038-.315-.143-.02-.11.092-.219.245-.247.157-.027.297.037.317.145" fill="#fff"/></svg>