<svg xmlns="http://www.w3.org/2000/svg" width="128" height="128" viewBox="0 0 33.867 33.867"><path d="M16.933 7.039c3.223 0 3.605.012 4.877.07 1.177.054 1.816.25 2.241.416.564.219.966.48 1.388.903.423.422.684.824.903 1.387.165.426.362 1.065.416 2.242.058 1.272.07 1.654.07 4.877 0 3.222-.012 3.604-.07 4.877-.054 1.176-.25 1.815-.416 2.24a3.74 3.74 0 01-.903 1.388 3.74 3.74 0 01-1.388.903c-.425.166-1.064.362-2.24.416-1.273.058-1.655.07-4.878.07s-3.604-.012-4.877-.07c-1.176-.054-1.816-.25-2.24-.416a3.74 3.74 0 01-1.389-.903 3.74 3.74 0 01-.902-1.387c-.166-.426-.362-1.065-.416-2.241-.058-1.273-.07-1.655-.07-4.877 0-3.223.012-3.605.07-4.877.054-1.177.25-1.816.416-2.242a3.74 3.74 0 01.902-1.387 3.74 3.74 0 011.388-.903c.425-.166 1.065-.362 2.241-.416 1.273-.058 1.655-.07 4.877-.07m0-2.175c-3.278 0-3.689.012-4.976.073-1.285.058-2.162.262-2.93.56A5.917 5.917 0 006.89 6.89a5.916 5.916 0 00-1.392 2.137c-.299.768-.503 1.646-.561 2.93-.06 1.288-.073 1.699-.073 4.976 0 3.278.014 3.69.073 4.977.058 1.284.262 2.162.56 2.93a5.916 5.916 0 001.393 2.137 5.916 5.916 0 002.137 1.392c.768.298 1.645.503 2.93.561 1.287.059 1.698.073 4.976.073s3.69-.013 4.976-.073c1.285-.058 2.162-.262 2.93-.56a5.917 5.917 0 002.138-1.393 5.916 5.916 0 001.392-2.138c.298-.767.502-1.645.561-2.93.059-1.287.073-1.698.073-4.976 0-3.277-.014-3.688-.073-4.976-.059-1.284-.263-2.162-.561-2.93a5.917 5.917 0 00-1.392-2.137 5.916 5.916 0 00-2.138-1.392c-.768-.298-1.645-.503-2.93-.561-1.287-.06-1.698-.073-4.976-.073zm.024 5.891a6.202 6.202 0 100 12.405 6.202 6.202 0 000-12.405zm0 10.228a4.026 4.026 0 110-8.052 4.026 4.026 0 010 8.052zm7.831-10.515a1.437 1.437 0 11-2.873 0 1.437 1.437 0 012.873 0z" fill="none" stroke="#fff" stroke-width=".203"/></svg>