<?xml version="1.0" encoding="UTF-8" standalone="no"?>
<svg
   xmlns:dc="http://purl.org/dc/elements/1.1/"
   xmlns:cc="http://creativecommons.org/ns#"
   xmlns:rdf="http://www.w3.org/1999/02/22-rdf-syntax-ns#"
   xmlns:svg="http://www.w3.org/2000/svg"
   xmlns="http://www.w3.org/2000/svg"
   width="128"
   height="128"
   viewBox="0 0 33.866666 33.866668"
   version="1.1"
   id="svg854">
  <defs
     id="defs848">
    <mask
       fill="white"
       height="44"
       width="44"
       y="0"
       x="0"
       maskUnits="objectBoundingBox"
       maskContentUnits="userSpaceOnUse"
       id="mask-4">
      <ellipse
         style="stroke-width:0.65293407"
         id="use3918"
         cx="-98.59333"
         cy="19.852995"
         rx="19.822554"
         ry="19.822584" />
    </mask>
    <mask
       fill="white"
       height="44"
       width="44"
       y="0"
       x="0"
       maskUnits="objectBoundingBox"
       maskContentUnits="userSpaceOnUse"
       id="mask-8">
      <ellipse
         style="stroke-width:0.65293407"
         id="use3926"
         cx="-98.59333"
         cy="19.852995"
         rx="19.822554"
         ry="19.822584" />
    </mask>
    <mask
       fill="white"
       height="44"
       width="44"
       y="0"
       x="0"
       maskUnits="objectBoundingBox"
       maskContentUnits="userSpaceOnUse"
       id="mask-8-3">
      <ellipse
         style="stroke-width:0.65293407"
         id="use3926-6"
         cx="-98.59333"
         cy="19.852995"
         rx="19.822554"
         ry="19.822584" />
    </mask>
    <mask
       fill="white"
       height="44"
       width="44"
       y="0"
       x="0"
       maskUnits="objectBoundingBox"
       maskContentUnits="userSpaceOnUse"
       id="mask-8-6">
      <ellipse
         style="stroke-width:0.65293407"
         id="use3926-2"
         cx="-98.59333"
         cy="19.852995"
         rx="19.822554"
         ry="19.822584" />
    </mask>
    <mask
       fill="white"
       height="44"
       width="44"
       y="0"
       x="0"
       maskUnits="objectBoundingBox"
       maskContentUnits="userSpaceOnUse"
       id="mask-8-0">
      <ellipse
         style="stroke-width:0.65293407"
         id="use3926-9"
         cx="-98.59333"
         cy="19.852995"
         rx="19.822554"
         ry="19.822584" />
    </mask>
    <mask
       fill="white"
       height="44"
       width="44"
       y="0"
       x="0"
       maskUnits="objectBoundingBox"
       maskContentUnits="userSpaceOnUse"
       id="mask-8-2">
      <circle
         style="stroke-width:0.07000434"
         id="use3926-61"
         cx="1.5400954"
         cy="334.2941"
         r="1.5400954" />
    </mask>
  </defs>
  <metadata
     id="metadata851">
    <rdf:RDF>
      <cc:Work
         rdf:about="">
        <dc:format>image/svg+xml</dc:format>
        <dc:type
           rdf:resource="http://purl.org/dc/dcmitype/StillImage" />
        <dc:title></dc:title>
      </cc:Work>
    </rdf:RDF>
  </metadata>
  <g
     id="layer1"
     transform="translate(0,-263.13332)">
    <path
       id="path4260"
       d="m 16.933318,270.17209 c 3.222664,0 3.604358,0.0124 4.877021,0.0705 1.176743,0.0534 1.815808,0.25047 2.241146,0.41557 0.563317,0.21895 0.965417,0.48054 1.387737,0.90283 0.422321,0.42232 0.683906,0.82445 0.902806,1.38777 0.165297,0.42531 0.361903,1.06439 0.41561,2.24107 0.05807,1.27271 0.07033,1.65439 0.07033,4.87705 0,3.22268 -0.01245,3.60436 -0.07033,4.87701 -0.0537,1.17677 -0.250309,1.81582 -0.41561,2.24117 -0.218917,0.56332 -0.480485,0.96541 -0.902806,1.38773 -0.42232,0.42232 -0.82442,0.68391 -1.387737,0.9028 -0.425338,0.16545 -1.064403,0.362 -2.241146,0.41563 -1.272473,0.058 -1.654166,0.0706 -4.877021,0.0706 -3.222853,0 -3.604546,-0.0124 -4.877018,-0.0706 -1.176748,-0.054 -1.815808,-0.25047 -2.2410975,-0.41563 -0.5633665,-0.21897 -0.9654705,-0.48048 -1.3877906,-0.9028 -0.4223202,-0.42232 -0.6839013,-0.82441 -0.902801,-1.38773 -0.165297,-0.42535 -0.3619041,-1.0644 -0.4156108,-2.24108 -0.058061,-1.27274 -0.070332,-1.65442 -0.070332,-4.8771 0,-3.22266 0.012444,-3.60434 0.070332,-4.877 0.053699,-1.17673 0.2503092,-1.81581 0.4156108,-2.24112 0.218917,-0.56332 0.4804808,-0.96545 0.902801,-1.38777 0.4223201,-0.42229 0.8244241,-0.68388 1.3877906,-0.90283 0.4252895,-0.16547 1.0643495,-0.36203 2.2410485,-0.41557 1.272712,-0.058 1.654405,-0.0705 4.877067,-0.0705 m 0,-2.17469 c -3.277854,0 -3.68882,0.0124 -4.976143,0.0726 -1.284683,0.0585 -2.1619981,0.2625 -2.9297467,0.561 -0.7936658,0.30854 -1.4667395,0.72111 -2.1377103,1.39209 -0.6709708,0.67097 -1.0836613,1.34407 -1.3920986,2.1377 -0.2983724,0.76776 -0.5023766,1.64508 -0.5610182,2.92976 -0.058717,1.28734 -0.072575,1.69834 -0.072575,4.9762 0,3.27788 0.013685,3.68887 0.072575,4.97616 0.058635,1.28468 0.2626256,2.16201 0.5610145,2.92973 0.3084492,0.79364 0.7211315,1.46673 1.3920986,2.13769 0.6709709,0.67098 1.3440482,1.08368 2.1377103,1.39213 0.7677478,0.29817 1.6450624,0.50236 2.9297504,0.561 1.287323,0.0588 1.698289,0.0725 4.976143,0.0725 3.277856,0 3.68887,-0.0124 4.976145,-0.0725 1.284685,-0.0585 2.161999,-0.2625 2.929747,-0.561 0.793662,-0.30854 1.466739,-0.72115 2.137709,-1.39213 0.670967,-0.67096 1.083658,-1.34402 1.3921,-2.13769 0.298373,-0.76772 0.502378,-1.64505 0.561014,-2.92973 0.05872,-1.28729 0.07261,-1.69828 0.07261,-4.97616 0,-3.27786 -0.01409,-3.68886 -0.07266,-4.97612 -0.05864,-1.28468 -0.262625,-2.16199 -0.561014,-2.92975 -0.308449,-0.79364 -0.721129,-1.46673 -1.392095,-2.13771 -0.67097,-0.67098 -1.344047,-1.08363 -2.13771,-1.3921 -0.767748,-0.29815 -1.645062,-0.50234 -2.929746,-0.56102 -1.287277,-0.0589 -1.698289,-0.0727 -4.976146,-0.0727 z m 0.02405,5.89096 c -3.425413,0 -6.202288,2.77687 -6.202288,6.20227 0,3.42542 2.776875,6.20229 6.202288,6.20229 3.425418,0 6.202293,-2.77687 6.202293,-6.20229 0,-3.4254 -2.776875,-6.20227 -6.202293,-6.20227 z m 0,10.22834 c -2.223501,0 -4.026058,-1.80255 -4.026058,-4.02607 0,-2.22349 1.802557,-4.02605 4.026058,-4.02605 2.223506,0 4.026062,1.80256 4.026062,4.02605 0,2.22352 -1.802556,4.02607 -4.026062,4.02607 z m 7.830695,-10.51572 c 0,0.79356 -0.643256,1.43682 -1.436801,1.43682 -0.793543,0 -1.436848,-0.64326 -1.436848,-1.43682 0,-0.79356 0.643305,-1.43679 1.436848,-1.43679 0.793545,0 1.436801,0.64323 1.436801,1.43679 z"
       style="fill:none;stroke:#ffffff;stroke-width:0.20305252;stroke-miterlimit:4;stroke-dasharray:none;stroke-opacity:1" />
  </g>
</svg>
