<svg xmlns="http://www.w3.org/2000/svg" width="128" height="128" viewBox="0 0 33.867 33.867"><g transform="matrix(.26458 0 0 .26458 -36.262 -46.413)" fill="none" stroke="#fff" stroke-width=".768" stroke-linejoin="round"><path d="M167.887 227.17h13.796v48.08h-13.796zm6.546-6.013h-.1c-4.994 0-8.231-3.676-8.231-8.33 0-4.75 3.333-8.352 8.427-8.352 5.09 0 8.219 3.593 8.319 8.338 0 4.655-3.23 8.344-8.415 8.344zm62.448 54.097h-15.643V250.37c0-6.512-2.447-10.953-7.828-10.953-4.116 0-6.404 2.995-7.47 5.891-.4 1.034-.337 2.48-.337 3.93v26.017h-15.498s.2-44.077 0-48.084h15.498v7.546c.915-3.3 5.868-8.008 13.77-8.008 9.805 0 17.508 6.92 17.508 21.808z"/><rect ry="8.203" y="193.804" x="155.437" height="91.232" width="91.232" stroke-linecap="round"/></g></svg>