<svg xmlns="http://www.w3.org/2000/svg" width="1000" height="300" viewBox="0 0 264.583 79.375"><g transform="translate(0 -217.625)" stroke="#fff"><path d="M38.372 240.659c-1.62 0-3.358 2.687-4.061 5.312H31.5c-.099-1.035-.633-1.822-1.282-1.822h-3.374c-.65 0-1.183.787-1.282 1.822h-.134a4 4 0 00-4.009 4.009v20.863a4 4 0 004.009 4.008H59.12a4 4 0 004.009-4.008V249.98a4 4 0 00-4.009-4.009h-8.882c-.669-2.496-2.442-5.312-4.061-5.312zm3.915 6.831c6.843 0 12.39 5.547 12.39 12.39 0 6.842-5.547 12.388-12.39 12.388-6.842 0-12.388-5.547-12.388-12.389s5.546-12.389 12.388-12.389zm0 2.846a9.544 9.544 0 00-9.543 9.543 9.544 9.544 0 1019.087 0 9.544 9.544 0 00-9.544-9.543z" fill="none" stroke-width=".203" stroke-linecap="round"/><circle cx="47.2" cy="255.184" r=".671" fill="#fff" stroke-width=".2" stroke-linecap="round"/><path d="M118.485 240.659a2.784 2.784 0 00-2.79 2.79v24.225a2.784 2.784 0 002.79 2.79h40.595a2.784 2.784 0 002.79-2.79V243.45a2.784 2.784 0 00-2.79-2.79zm.367 1.72h39.874c.773 0 1.395.622 1.395 1.395v21.209c0 .773-.622 1.395-1.395 1.395h-39.874a1.392 1.392 0 01-1.395-1.395v-21.209c0-.773.622-1.395 1.395-1.395z" fill="none" stroke-width=".203" stroke-linecap="round"/><path d="M131.897 271.398l-6.252 3.453h26.32l-6.253-3.453z" fill="none" stroke-width=".203" stroke-linecap="round" stroke-linejoin="round"/><path d="M147.742 246.932h9.973M147.742 246.932h9.973M147.742 249.05h9.973M147.742 251.167h9.973M147.742 253.284h9.973M147.742 259.636h9.973M147.742 261.753h9.973M147.846 261.826v-2.202M157.61 261.826v-2.202" fill="none" stroke-width=".203"/><circle cx="149.075" cy="246.925" r=".368" fill="#1d1d1d" stroke-width=".203" stroke-linecap="round"/><circle r=".368" cy="249.043" cx="153.839" fill="#1d1d1d" stroke-width=".203" stroke-linecap="round"/><circle cx="150.569" cy="251.16" r=".368" fill="#1d1d1d" stroke-width=".203" stroke-linecap="round"/><circle r=".368" cy="253.277" cx="155.427" fill="#1d1d1d" stroke-width=".203" stroke-linecap="round"/><path fill="none" stroke-width=".203" stroke-linecap="round" d="M120.376 245.48H142.7v17.779h-22.324z"/><path d="M120.376 260.33l8.155-8.67 14.188 7.342" fill="none" stroke-width=".203"/><path d="M136.833 255.962l2.167-2.298 3.725 1.927" fill="none" stroke-width=".203"/><path d="M69.025 258.112h39.556" fill="none" stroke-width=".406" stroke-linejoin="round" stroke-dasharray=".4064,1.62559999999999993"/><path d="M222.43 242.434q.97-.404 2.048-.697 1.1-.286 2.28-.373 1.18-.087 2.468.083 1.296.147 2.699.626 1.907.65 3.284 1.706 1.4 1.064 2.182 2.432.789 1.346.932 2.936.143 1.59-.44 3.3-.567 1.667-1.468 2.73-.893 1.042-1.945 1.687-1.03.652-2.109 1.018l-2.048.697q-.962.308-1.726.684-.735.362-1.084 1.026l-1.595 3.029-3.705-1.263.845-3.7q.016-.118.038-.183l.067-.198q.329-.964 1.05-1.501.73-.56 1.662-.927.94-.39 1.975-.697 1.035-.308 1.99-.741.963-.455 1.744-1.168.78-.713 1.184-1.896.27-.79.172-1.508-.069-.733-.445-1.35-.37-.64-1.033-1.136-.641-.488-1.496-.779-1.25-.426-2.224-.44-.945-.028-1.678.114-.704.127-1.218.27-.506.121-.835.009-.79-.27-.916-1.046zm-4.666 27.26q.232-.68.682-1.21.473-.525 1.06-.814.61-.282 1.314-.336.703-.054 1.405.186.68.231 1.204.703.524.473.813 1.06.29.589.343 1.292.054.704-.178 1.383-.239.702-.711 1.226-.465.502-1.053.791-.588.29-1.284.321-.703.054-1.383-.177-.701-.24-1.226-.712-.531-.45-.842-1.045-.29-.588-.35-1.27-.033-.696.206-1.398z" aria-label="?" font-weight="700" font-size="40" font-family="Lato" letter-spacing="0" word-spacing="0" opacity=".2" fill="none" stroke-width=".20266925"/><path d="M220.24 240.304q1.085-.562 2.307-1.008 1.248-.439 2.607-.655 1.36-.217 2.87-.146 1.516.045 3.19.462 2.274.567 3.974 1.657 1.727 1.097 2.767 2.606 1.047 1.483 1.368 3.313.322 1.83-.187 3.87-.495 1.987-1.435 3.307-.934 1.295-2.09 2.146-1.13.857-2.346 1.387-1.215.53-2.306 1.008-1.085.452-1.934.962-.817.491-1.156 1.295l-1.553 3.668-4.42-1.102.619-4.373q.006-.137.026-.215l.058-.236q.287-1.15 1.07-1.843.791-.72 1.837-1.237 1.052-.543 2.221-1.002 1.17-.458 2.235-1.053 1.071-.622 1.907-1.525.836-.902 1.188-2.314.235-.942.051-1.765-.15-.843-.648-1.522-.49-.706-1.308-1.215-.791-.503-1.811-.757-1.49-.372-2.621-.292-1.098.06-1.934.295-.804.216-1.386.432-.575.19-.967.093-.941-.235-1.164-1.124zm-2.742 32.061q.202-.81.672-1.471.497-.654 1.15-1.047.68-.386 1.49-.517.81-.131 1.647.077.81.202 1.464.699.654.496 1.047 1.15.392.653.524 1.463.131.81-.071 1.62-.209.838-.705 1.492-.49.627-1.143 1.02t-1.457.498q-.81.131-1.621-.071-.837-.209-1.49-.705-.661-.47-1.08-1.13-.393-.653-.53-1.437-.106-.804.103-1.641z" aria-label="?" font-weight="700" font-size="40" font-family="Lato" letter-spacing="0" word-spacing="0" opacity=".6" fill="none" stroke-width=".20345891"/><path d="M217.527 238.438q1.175-.774 2.521-1.429 1.377-.651 2.908-1.06 1.531-.41 3.269-.51 1.742-.129 3.708.15 2.673.379 4.75 1.425 2.107 1.05 3.478 2.655 1.375 1.574 1.961 3.631.586 2.057.247 4.454-.33 2.334-1.25 3.96-.916 1.593-2.139 2.705-1.192 1.116-2.52 1.868-1.33.751-2.522 1.429-1.188.646-2.1 1.332-.877.659-1.17 1.62l-1.342 4.385-5.192-.735.187-5.082q-.009-.158.004-.25l.04-.276q.19-1.352 1.006-2.24.82-.917 1.955-1.634 1.14-.747 2.425-1.411 1.285-.665 2.434-1.473 1.153-.84 2.003-1.973.85-1.133 1.085-2.792.156-1.106-.152-2.027-.273-.948-.923-1.666-.646-.75-1.643-1.236-.966-.482-2.164-.651-1.751-.248-3.037-.023-1.25.199-2.18.569-.895.343-1.535.66-.636.286-1.097.22-1.106-.156-1.467-1.148zm.675 37.043q.135-.952.595-1.764.49-.808 1.192-1.336.732-.523 1.644-.77.913-.246 1.896-.107.952.135 1.76.625.808.491 1.336 1.192.527.702.774 1.614.247.913.112 1.865-.14.983-.63 1.791-.486.777-1.188 1.305-.701.527-1.61.743-.912.247-1.864.112-.983-.139-1.791-.63-.812-.46-1.37-1.165-.528-.702-.78-1.583-.215-.908-.076-1.892z" aria-label="?" font-weight="700" font-size="40" font-family="Lato" letter-spacing="0" word-spacing="0" fill="none" stroke-width=".20323602000000002"/><path d="M107.94 260.063l1.949-1.95-1.95-1.948" fill="none" stroke-width=".203" stroke-linecap="round" stroke-linejoin="round"/><path d="M167.45 258.112h39.556" fill="none" stroke-width=".406" stroke-linejoin="round" stroke-dasharray=".4064,1.62559999999999993"/><path d="M205.835 260.063l1.95-1.95-1.95-1.948" fill="none" stroke-width=".203" stroke-linecap="round" stroke-linejoin="round"/></g></svg>