<svg xmlns="http://www.w3.org/2000/svg" width="128" height="128" viewBox="0 0 33.867 33.867"><g stroke="#fff" stroke-width=".24" fill="none"><path d="M11 27.3c-.2-8 6.1-14.6 14.1-14.8 8-.2 14.6 6.1 14.8 14.1v.8c-.2 8-6.9 14.3-14.9 14.1-7.6-.3-13.8-6.5-14-14.2z" class="st0" transform="translate(-6.336 -7.934) scale(.91438)"/><path d="M33.9 29.2v.6c0 3.3-3.8 5.9-8.5 5.9s-8.5-2.6-8.5-5.9v-.6c-1.1-.5-1.5-1.7-1.1-2.8.3-.8 1.1-1.3 1.9-1.2.6 0 1.1.2 1.5.6 1.7-1.1 3.7-1.8 5.7-1.8l1.1-5c0-.1.1-.2.1-.2.1-.1.2-.1.3-.1l3.5.8c.4-.7 1.3-1.1 2-.7.7.4 1.1 1.3.7 2-.4.7-1.3 1.1-2 .7-.5-.2-.8-.7-.8-1.3l-3.1-.7-1 4.5c2.2.1 4.2.8 5.6 1.8.8-.8 2.2-.8 3 0 .4.4.6.9.6 1.5-.014.959-.3 1.6-1 1.9zm-11.7 1.1c.8 0 1.5-.7 1.5-1.5s-.7-1.5-1.5-1.5-1.5.7-1.5 1.5.6 1.5 1.5 1.5zm6.9 1.9c-.2-.2-.4-.2-.5 0-.6.7-2 .9-3 .9s-2.4-.2-3-.9c-.2-.2-.4-.2-.5 0-.198.2-.156.389 0 .5 1 1 2.77 1.178 3.37 1.178.6 0 2.5-.1 3.6-1.1.208-.153.13-.378.03-.578zm1.2-3.4c0-.8-.7-1.5-1.5-1.5s-1.5.7-1.5 1.5.7 1.5 1.5 1.5 1.5-.7 1.5-1.5z" class="st2" transform="translate(-6.336 -7.934) scale(.91438)"/></g></svg>