<?xml version="1.0" encoding="UTF-8" standalone="no"?>
<svg
   xmlns:dc="http://purl.org/dc/elements/1.1/"
   xmlns:cc="http://creativecommons.org/ns#"
   xmlns:rdf="http://www.w3.org/1999/02/22-rdf-syntax-ns#"
   xmlns:svg="http://www.w3.org/2000/svg"
   xmlns="http://www.w3.org/2000/svg"
   id="svg1714"
   version="1.1"
   viewBox="0 0 6.3499999 6.3500002"
   height="24"
   width="24">
  <defs
     id="defs1708" />
  <metadata
     id="metadata1711">
    <rdf:RDF>
      <cc:Work
         rdf:about="">
        <dc:format>image/svg+xml</dc:format>
        <dc:type
           rdf:resource="http://purl.org/dc/dcmitype/StillImage" />
        <dc:title></dc:title>
      </cc:Work>
    </rdf:RDF>
  </metadata>
  <g
     transform="translate(0,-290.64998)"
     id="layer1">
    <path
       id="path465"
       d="m 0.66352573,291.31121 v 0.95943 c 2.24013797,10e-4 4.06085937,1.82545 4.06292847,4.06765 H 5.68854 c -5.91e-4,-1.38564 -0.5639509,-2.64123 -1.4743115,-3.55218 -0.9103609,-0.91065 -2.1653582,-1.47431 -3.55070277,-1.4749 z m -0.00148,1.70959 v 0.95972 c 0.62631627,2.9e-4 1.21952887,0.2465 1.66259077,0.69075 0.4439486,0.44306 0.6886821,1.03657 0.6898643,1.66525 v 0.002 h 0.9644504 c -8.995e-4,-0.9145 -0.3727159,-1.74269 -0.9736132,-2.34388 -0.600897,-0.60119 -1.4290889,-0.97332 -2.34329227,-0.97361 z m 0.1950773,3.1165 v -2.9e-4 h -2.927e-4 z M 1.800588,295.19709 c 0.1220711,0.12178 0.1962594,0.28671 0.196555,0.47055 -2.911e-4,0.18326 -0.074484,0.34848 -0.1959639,0.46937 l -5.821e-4,2.9e-4 c -0.1211845,0.12089 -0.2872957,0.19508 -0.4717325,0.19508 -0.1847324,0 -0.35025257,-0.0745 -0.47173257,-0.19538 -0.1208939,-0.12088 -0.1956736,-0.28581 -0.1956736,-0.46936 0,-0.18384 0.07478,-0.34907 0.1956684,-0.47055 0.12148,-0.12089 0.28700007,-0.19567 0.47173247,-0.19567 0.1844368,0 0.350548,0.0748 0.4717325,0.19567 z"
       style="fill:#ffffff;stroke-width:0.26458332;fill-opacity:1" />
  </g>
</svg>
