<?xml version="1.0" encoding="UTF-8" standalone="no"?>
<svg
   xmlns:dc="http://purl.org/dc/elements/1.1/"
   xmlns:cc="http://creativecommons.org/ns#"
   xmlns:rdf="http://www.w3.org/1999/02/22-rdf-syntax-ns#"
   xmlns:svg="http://www.w3.org/2000/svg"
   xmlns="http://www.w3.org/2000/svg"
   id="svg1455"
   version="1.1"
   viewBox="0 0 33.866666 6.4145579"
   height="24.243999"
   width="128">
  <defs
     id="defs1449" />
  <metadata
     id="metadata1452">
    <rdf:RDF>
      <cc:Work
         rdf:about="">
        <dc:format>image/svg+xml</dc:format>
        <dc:type
           rdf:resource="http://purl.org/dc/dcmitype/StillImage" />
        <dc:title></dc:title>
      </cc:Work>
    </rdf:RDF>
  </metadata>
  <g
     transform="translate(0,-290.58544)"
     id="layer1">
    <g
       id="flowRoot1485"
       style="font-style:normal;font-variant:normal;font-weight:normal;font-stretch:normal;font-size:40px;line-height:1.25;font-family:Ubuntu;-inkscape-font-specification:Ubuntu;letter-spacing:0px;word-spacing:0px;fill:#000000;fill-opacity:1;stroke:none"
       transform="matrix(0.26458333,0,0,0.26458333,-67.067663,225.1709)"
       aria-label="Photonix">
      <path
         id="path2012"
         style="font-style:normal;font-variant:normal;font-weight:300;font-stretch:normal;font-size:85.33333588px;font-family:Nunito;-inkscape-font-specification:'Nunito Light';fill:#ffffff;fill-opacity:1;stroke-width:0.39627469"
         d="m 254.53236,271.41244 q -0.47341,0 -0.77776,-0.27053 -0.27052,-0.30433 -0.27052,-0.81157 v -21.87859 q 0,-0.4396 0.30433,-0.74394 0.33816,-0.30433 0.81158,-0.30433 h 7.91281 q 3.7197,0 5.74863,1.79222 2.06274,1.79221 2.06274,5.07231 0,3.31391 -2.06274,5.13995 -2.06274,1.79221 -5.74863,1.79221 h -6.93216 v 9.13017 q 0,0.50724 -0.30434,0.81157 -0.27053,0.27053 -0.74394,0.27053 z m 7.84518,-12.00448 q 5.85008,0 5.85008,-5.13995 0,-5.07231 -5.85008,-5.07231 h -6.7969 v 10.21226 z" />
      <path
         id="path2014"
         style="font-style:normal;font-variant:normal;font-weight:300;font-stretch:normal;font-size:85.33333588px;font-family:Nunito;-inkscape-font-specification:'Nunito Light';fill:#ffffff;fill-opacity:1;stroke-width:0.39627469"
         d="m 282.38519,254.43708 q 5.91769,0 5.91769,6.35731 v 9.56977 q 0,0.47342 -0.27052,0.77775 -0.27052,0.27053 -0.74394,0.27053 -0.47341,0 -0.77775,-0.27053 -0.27053,-0.30433 -0.27053,-0.77775 v -9.4345 q 0,-2.43472 -0.98064,-3.55064 -0.98065,-1.1159 -3.11103,-1.1159 -2.4347,0 -3.92259,1.48788 -1.45406,1.48788 -1.45406,3.99023 v 8.62293 q 0,0.47342 -0.27052,0.77775 -0.27052,0.27053 -0.74394,0.27053 -0.47342,0 -0.77775,-0.27053 -0.27053,-0.30433 -0.27053,-0.77775 v -22.08148 q 0,-0.47342 0.27053,-0.74394 0.30433,-0.30434 0.77775,-0.30434 0.47342,0 0.74394,0.30434 0.27052,0.27052 0.27052,0.74394 v 9.29924 q 0.77776,-1.52169 2.23182,-2.33326 1.48788,-0.81158 3.38155,-0.81158 z" />
      <path
         id="path2016"
         style="font-style:normal;font-variant:normal;font-weight:300;font-stretch:normal;font-size:85.33333588px;font-family:Nunito;-inkscape-font-specification:'Nunito Light';fill:#ffffff;fill-opacity:1;stroke-width:0.39627469"
         d="m 300.1906,271.48007 q -2.26564,0 -3.99022,-1.04828 -1.69077,-1.04828 -2.63761,-2.97576 -0.94683,-1.92748 -0.94683,-4.49745 0,-2.56998 0.94683,-4.49745 0.94684,-1.92749 2.63761,-2.97577 1.72458,-1.04828 3.99022,-1.04828 2.23182,0 3.9564,1.04828 1.7246,1.04828 2.63761,2.97577 0.94683,1.92747 0.94683,4.49745 0,2.56997 -0.94683,4.49745 -0.91301,1.92748 -2.63761,2.97576 -1.72458,1.04828 -3.9564,1.04828 z m -0.0338,-1.82603 q 2.60379,0 4.02404,-1.72459 1.42025,-1.72459 1.42025,-4.97087 0,-3.17866 -1.45407,-4.93705 -1.42024,-1.79222 -3.9564,-1.79222 -2.56998,0 -3.99022,1.79222 -1.42025,1.75839 -1.42025,4.93705 0,3.24628 1.38643,4.97087 1.38643,1.72459 3.99022,1.72459 z" />
      <path
         id="path2018"
         style="font-style:normal;font-variant:normal;font-weight:300;font-stretch:normal;font-size:85.33333588px;font-family:Nunito;-inkscape-font-specification:'Nunito Light';fill:#ffffff;fill-opacity:1;stroke-width:0.39627469"
         d="m 319.22605,269.68785 q 0.94683,0.10145 0.94683,0.87921 0,0.40578 -0.30433,0.64249 -0.30435,0.2367 -0.98065,0.20289 l -0.94683,-0.0676 q -2.56998,-0.16906 -3.82115,-1.5555 -1.21735,-1.42025 -1.21735,-4.29456 v -8.99491 h -2.56997 q -0.40579,0 -0.64251,-0.20289 -0.2367,-0.23671 -0.2367,-0.60868 0,-0.37198 0.2367,-0.60868 0.23672,-0.23671 0.64251,-0.23671 h 2.56997 v -4.19311 q 0,-0.50724 0.27052,-0.77776 0.27052,-0.27052 0.74394,-0.27052 0.47341,0 0.74394,0.27052 0.30434,0.27052 0.30434,0.77776 v 4.19311 h 4.09167 q 0.4396,0 0.6763,0.23671 0.23671,0.2367 0.23671,0.60868 0,0.37197 -0.23671,0.60868 -0.2367,0.20289 -0.6763,0.20289 h -4.09167 v 9.09635 q 0,2.09656 0.81157,3.00957 0.81157,0.8792 2.53615,1.01447 z" />
      <path
         id="path2020"
         style="font-style:normal;font-variant:normal;font-weight:300;font-stretch:normal;font-size:85.33333588px;font-family:Nunito;-inkscape-font-specification:'Nunito Light';fill:#ffffff;fill-opacity:1;stroke-width:0.39627469"
         d="m 329.64702,271.48007 q -2.26563,0 -3.99022,-1.04828 -1.69078,-1.04828 -2.63761,-2.97576 -0.94682,-1.92748 -0.94682,-4.49745 0,-2.56998 0.94682,-4.49745 0.94683,-1.92749 2.63761,-2.97577 1.72459,-1.04828 3.99022,-1.04828 2.23181,0 3.95641,1.04828 1.72458,1.04828 2.6376,2.97577 0.94683,1.92747 0.94683,4.49745 0,2.56997 -0.94683,4.49745 -0.91302,1.92748 -2.6376,2.97576 -1.7246,1.04828 -3.95641,1.04828 z m -0.0338,-1.82603 q 2.6038,0 4.02404,-1.72459 1.42025,-1.72459 1.42025,-4.97087 0,-3.17866 -1.45406,-4.93705 -1.42025,-1.79222 -3.95641,-1.79222 -2.56997,0 -3.99022,1.79222 -1.42025,1.75839 -1.42025,4.93705 0,3.24628 1.38644,4.97087 1.38643,1.72459 3.99021,1.72459 z" />
      <path
         id="path2022"
         style="font-style:normal;font-variant:normal;font-weight:300;font-stretch:normal;font-size:85.33333588px;font-family:Nunito;-inkscape-font-specification:'Nunito Light';fill:#ffffff;fill-opacity:1;stroke-width:0.39627469"
         d="m 349.22352,254.43708 q 5.9177,0 5.9177,6.35731 v 9.56977 q 0,0.47342 -0.27053,0.77775 -0.27052,0.27053 -0.74393,0.27053 -0.47343,0 -0.77776,-0.27053 -0.27052,-0.30433 -0.27052,-0.77775 v -9.4345 q 0,-2.43472 -0.98065,-3.55064 -0.98065,-1.1159 -3.11102,-1.1159 -2.43471,0 -3.92259,1.48788 -1.45407,1.48788 -1.45407,3.99023 v 8.62293 q 0,0.47342 -0.27052,0.77775 -0.27052,0.27053 -0.74394,0.27053 -0.47342,0 -0.77775,-0.27053 -0.27053,-0.30433 -0.27053,-0.77775 V 255.553 q 0,-0.47342 0.27053,-0.74394 0.30433,-0.30435 0.77775,-0.30435 0.43961,0 0.71012,0.27053 0.27052,0.27052 0.27052,0.74394 v 2.13038 q 0.77776,-1.55552 2.23183,-2.36709 1.48787,-0.84539 3.41536,-0.84539 z" />
      <path
         id="path2024"
         style="font-style:normal;font-variant:normal;font-weight:300;font-stretch:normal;font-size:85.33333588px;font-family:Nunito;-inkscape-font-specification:'Nunito Light';fill:#ffffff;fill-opacity:1;stroke-width:0.39627469"
         d="m 361.55083,271.41244 q -0.47343,0 -0.77776,-0.27053 -0.27052,-0.27052 -0.27052,-0.77775 V 255.553 q 0,-0.50724 0.27052,-0.77776 0.30433,-0.27053 0.77776,-0.27053 0.47341,0 0.74393,0.27053 0.27053,0.27052 0.27053,0.77776 v 14.81116 q 0,0.50723 -0.27053,0.77775 -0.27052,0.27053 -0.74393,0.27053 z m 0,-20.72887 q -0.67632,0 -1.11592,-0.40578 -0.40578,-0.40579 -0.40578,-1.04828 0,-0.67632 0.40578,-1.0821 0.4396,-0.40578 1.11592,-0.40578 0.67631,0 1.08209,0.40578 0.4396,0.40578 0.4396,1.0821 0,0.64249 -0.4396,1.04828 -0.40578,0.40578 -1.08209,0.40578 z" />
      <path
         id="path2026"
         style="font-style:normal;font-variant:normal;font-weight:300;font-stretch:normal;font-size:85.33333588px;font-family:Nunito;-inkscape-font-specification:'Nunito Light';fill:#ffffff;fill-opacity:1;stroke-width:0.39627469"
         d="m 381.18597,269.62022 q 0.30434,0.30433 0.30434,0.77776 0,0.40578 -0.30434,0.71012 -0.27052,0.27053 -0.64249,0.27053 -0.47342,0 -0.77776,-0.40579 l -5.78244,-6.69546 -5.78244,6.69546 q -0.33816,0.40579 -0.77775,0.40579 -0.37197,0 -0.67631,-0.27053 -0.27052,-0.30434 -0.27052,-0.71012 0,-0.4396 0.30433,-0.77776 l 5.91771,-6.76309 -5.71482,-6.59401 q -0.30433,-0.37197 -0.30433,-0.74394 0,-0.4396 0.27052,-0.71012 0.30435,-0.30435 0.67631,-0.30435 0.4396,0 0.81157,0.40579 l 5.54573,6.49257 5.57955,-6.49257 q 0.37197,-0.40579 0.77775,-0.40579 0.37198,0 0.64249,0.30435 0.30435,0.27052 0.30435,0.6763 0,0.4396 -0.30435,0.77776 l -5.7148,6.59401 z" />
    </g>
  </g>
</svg>
