<?xml version="1.0" encoding="UTF-8" standalone="no"?>
<svg
   xmlns:dc="http://purl.org/dc/elements/1.1/"
   xmlns:cc="http://creativecommons.org/ns#"
   xmlns:rdf="http://www.w3.org/1999/02/22-rdf-syntax-ns#"
   xmlns:svg="http://www.w3.org/2000/svg"
   xmlns="http://www.w3.org/2000/svg"
   width="128"
   height="128"
   viewBox="0 0 33.866666 33.866668"
   version="1.1"
   id="svg854">
  <defs
     id="defs848">
    <mask
       fill="white"
       height="44"
       width="44"
       y="0"
       x="0"
       maskUnits="objectBoundingBox"
       maskContentUnits="userSpaceOnUse"
       id="mask-4">
      <ellipse
         style="stroke-width:0.65293407"
         id="use3918"
         cx="-98.59333"
         cy="19.852995"
         rx="19.822554"
         ry="19.822584" />
    </mask>
  </defs>
  <metadata
     id="metadata851">
    <rdf:RDF>
      <cc:Work
         rdf:about="">
        <dc:format>image/svg+xml</dc:format>
        <dc:type
           rdf:resource="http://purl.org/dc/dcmitype/StillImage" />
        <dc:title></dc:title>
      </cc:Work>
    </rdf:RDF>
  </metadata>
  <g
     id="layer1"
     transform="translate(0,-263.13332)">
    <g
       id="g26"
       transform="matrix(0.27873662,0,0,-0.2787364,16.93333,263.30026)"
       style="fill:#9f9f9f;fill-opacity:1;stroke:#000000;stroke-width:0.72465628;stroke-miterlimit:4;stroke-dasharray:none;stroke-opacity:1">
      <g
         style="fill:none;stroke:#ffffff;stroke-width:0.17026418;stroke-linejoin:round;stroke-miterlimit:4;stroke-dasharray:none;stroke-opacity:1"
         transform="matrix(4.4837659,0,0,-4.4837001,-100.88475,42.973671)"
         id="twitter">
        <path
           id="path4246"
           d="m 30.526149,16.845732 c 0.889945,-0.561607 1.572812,-1.452117 1.893291,-2.512928 -0.833245,0.521306 -1.754006,0.89831 -2.736397,1.102412 C 28.899102,14.551206 27.778658,14 26.538651,14 c -2.37894,0 -4.306744,2.034523 -4.306744,4.54355 0,0.356204 0.03575,0.703308 0.109702,1.034812 -3.579503,-0.189802 -6.753477,-1.996822 -8.879732,-4.747653 -0.371016,0.673408 -0.583025,1.453416 -0.583025,2.285426 0,1.575617 0.760521,2.966633 1.916711,3.783042 -0.706287,-0.0234 -1.370664,-0.230103 -1.952457,-0.568107 v 0.0559 c 0,2.202224 1.484064,4.039145 3.457475,4.455149 -0.362388,0.106602 -0.742032,0.159902 -1.136468,0.159902 -0.277337,0 -0.548512,-0.0273 -0.809825,-0.0806 0.547279,1.80442 2.13858,3.120035 4.024476,3.155135 -1.475436,1.219414 -3.332981,1.944822 -5.350766,1.944822 -0.347596,0 -0.691495,-0.0195 -1.027998,-0.0624 C 13.90685,31.247292 16.171157,32 18.604332,32 c 7.925691,0 12.257087,-6.923877 12.257087,-12.928644 0,-0.197602 -0.0025,-0.393904 -0.01109,-0.587606 0.841873,-0.640907 1.574045,-1.441716 2.149674,-2.353026 -0.772847,0.361404 -1.603627,0.605806 -2.473851,0.715008 z"
           style="fill:none;stroke:#ffffff;stroke-width:0.17026418;stroke-linejoin:round;stroke-miterlimit:4;stroke-dasharray:none;stroke-opacity:1" />
      </g>
    </g>
  </g>
</svg>
