<svg xmlns="http://www.w3.org/2000/svg" xmlns:xlink="http://www.w3.org/1999/xlink" width="437" height="145" xmlns:v="https://vecta.io/nano"><g fill="#fff"><path d="M72.199 0a72.2 72.2 0 1 0 0 144.4 72.2 72.2 0 1 0 0-144.4zM37.301 49.1c10.7 0 15.898 4.301 15.898 14.201v30.898h-6.6l-.9-5.898A20.8 20.8 0 0 1 30.1 95.1c-8 0-13-4.799-13-12.299 0-11 9.4-15.401 27.9-17.301v-1.9c0-5.6-3.3-7.5-8.4-7.5s-10.499 1.7-15.299 3.8l-1.102-7.1c5.3-2.1 10.302-3.701 17.102-3.701zm72.699 0a35.7 35.7 0 0 1 14.5 3l-1.301 7.801a28.2 28.2 0 0 0-13.398-3.801c-5 0-7.602 1.9-7.602 5.1s2.201 4.6 9.201 6.4c10.9 2.8 15.799 5.901 15.799 14.301s-6.1 13.199-17.5 13.199A36.2 36.2 0 0 1 93.6 90.9l1.201-7.801a27.6 27.6 0 0 0 15.6 5.1c5.6 0 9-2.099 9-5.799s-2.5-5.6-10.5-7.5c-10.4-2.6-14.5-5.7-14.5-13.6S100.3 49.1 110 49.1zm-22.301.1L89 57.1c-7.4.3-13.6 5.2-16.6 11v26.1h-8.201V50.1h6.602l1.398 9c3.1-5 8.2-9.5 15.5-9.9zM45 71.801c-16.3 1.6-19.699 6-19.699 10.6s2.4 5.9 6.6 5.9S41.3 85.9 45 82.1V71.801zM219.3 83.9c-4.4 3.7-8.4 5-12.8 5-7.7 0-12.7-5.3-13.5-14h24.9l.9-5.5H193c.8-8.7 5.7-14.1 12.9-14.1 4.9 0 8.8 1.7 12.9 5.1l1-5.9a23 23 0 0 0-13.7-4.3c-10.7 0-19.2 7.8-19.2 21.9S195.2 94 205.8 94a22.1 22.1 0 0 0 14.3-4.8zm-48.8-27.6v37h-5.8v-37h-13.4V51h32.2l.9 5.3h-13.9z"/><use xlink:href="#B"/><path d="M292.7 93.2V73.7h-21.4v19.5h-5.8V51h5.8v17.5h21.4V51h5.8v42.2h-5.8zm43 0l-23.2-32.9v32.9h-5.3V51h5.1l22.4 31.6V51h5.3v42.2h-4.3zm13.4 0V51h5.8v42.2h-5.8z"/><use xlink:href="#B" x="136.6"/><path d="M414.8 50.8h5.8l16.3 41.6-5.6 1.2-5-13.1h-17.4l-4.8 12.7h-5.8zm-4 24.7h13.5l-6.8-17.9z"/></g><defs ><path id="B" d="M245.2 94c-11.9 0-19.5-8.8-19.5-21.8s7.8-22 19.6-22a20.3 20.3 0 0 1 12 3.5l-.9 5.9a18.1 18.1 0 0 0-11.2-4.1c-8.6 0-13.6 6.5-13.6 16.6s5.1 16.6 13.6 16.6a20.1 20.1 0 0 0 11.9-4.2l.9 5.4a22.3 22.3 0 0 1-12.8 4.1z"/></defs></svg>