<svg xmlns="http://www.w3.org/2000/svg" width="85" height="53" viewBox="0 0 22.49 14.023" xmlns:v="https://vecta.io/nano"><path d="M4.93.001c-.008-.002-.015.001-.021.008-.071.076-.368.934-.488 1.411a6.4 6.4 0 0 0-.209 1.936l.023.574-.083-.136c-.045-.075-.096-.136-.112-.136-.092 0-.391.57-.481.917-.076.291-.087 1.039-.021 1.387.058.307.134.588.154.568.009-.009.047-.151.085-.316h0c.09-.388.202-.603.41-.787.151-.133.17-.139.182-.062.056.349.202.808.297.934.089.117.145.149.262.149.26 0 .459-.346.537-.935.016-.119.042-.216.058-.216.061 0 .351.339.436.511a2.21 2.21 0 0 1 .143.457c.03.153.07.262.088.243s.069-.205.111-.412c.093-.452.103-1.127.023-1.462-.067-.278-.269-.723-.403-.886-.086-.105-.094-.106-.144-.029l-.097.145c-.03.043-.044-.208-.045-.79-.001-.97-.064-1.356-.382-2.312C5.08.234 4.985.011 4.93 0zm2.098 3.657v3.012 3.012h.552.552V7.677h.001V5.673l.508.775 1.314 2.004.806 1.229h.563l.563.001V6.669 3.657h-.552-.552l-.002 2.004-.077 1.908c-.042-.053-.64-.955-1.329-2.005L8.123 3.657h-.548zm5.743 0V5.89l.084 2.503c.189.61.611 1.034 1.22 1.227.264.084 1.232.078 1.527-.008.635-.192 1.222-.726 1.256-1.236l.013-2.359.012-2.359h-.53-.53l-.013 2.204c-.014 2.465-.003 2.377-.333 2.601-.15.102-.205.112-.623.112-.537 0-.73-.077-.885-.354-.092-.164-.094-.208-.094-2.365V3.658h-.552zm5.318 0l-.635.021c0 .027.157.284 1.076 1.763l.732 1.179-.261.412-.499.789-.708 1.119-.47.742h.651.652l.573-.912.643-1.004c.068-.088.093-.055.682.895l.661 1.005c.027.01.319.013.65.007l.601-.012-.385-.62-1.461-2.41c0-.029.087-.187.192-.35l1.56-2.456.105-.166h-.652-.652l-.596.95-.625.952c-.016.001-.073-.073-.126-.164l-.584-.952-.487-.786zM.026 3.679L.014 6.625l.01 3.001c.016.043.339.055 1.408.055h1.387l.026-.41.015-.543-.01-.133h-.815-.815l-.022-2.458-.022-2.458H.6zm4.909 2.813c-.093 0-.095.013-.08.454.008.25-.001.564-.021.698l-.037.244-.22.024c-.121.013-.264.048-.317.077-.13.072-.274.282-.307.446-.02.102-.057.141-.152.162-.198.043-.394.299-.394.512 0 .308.133.481.439.574.177.054 2.098.049 2.242-.005.289-.11.441-.395.363-.678-.051-.186-.228-.368-.392-.404-.084-.019-.134-.063-.153-.137-.017-.067-.088-.138-.184-.185-.145-.069-.166-.07-.281-.003-.124.071-.125.071-.238-.103-.142-.217-.226-.787-.193-1.311.022-.353.019-.366-.073-.366zM0 10.789l.013 1.277.013 1.277.133.216c.097.157.197.25.369.34.231.121.254.124.958.124h.721l.014-1.2.014-1.2.124-.107c.1-.086.172-.107.375-.105.482.003.495.04.495 1.458v1.155h.309.309v-1.185L3.8 11.482c-.062-.225-.355-.538-.585-.626-.146-.056-.33-.068-.891-.058l-.707.012-.012 1.194c-.011 1.154-.015 1.197-.107 1.296-.08.085-.14.102-.377.102s-.297-.016-.39-.109l-.108-.109v-1.198-1.198H.311zm4.466 0v1.617 1.617h.309.309v-.62-.62h.293c.39 0 .6-.069.833-.274.514-.454.415-1.277-.193-1.595-.228-.119-.26-.124-.894-.124zm2.562 0v1.617 1.617H8h.972v-.31-.31H8.31h-.663v-1.307-1.307h-.309zm2.341 0v1.229c.001 1.197.003 1.235.104 1.451.116.248.191.324.448.458.158.082.256.092.917.094l.74.002v-1.617-1.617h-.309-.309v1.215 1.215l-.116.092c-.178.14-.6.131-.747-.017l-.109-.109v-1.198-1.198h-.309zm6.957 0c-.732 0-.871.029-1.15.243a.98.98 0 0 0-.234.308c-.086.184-.094.275-.094 1.074 0 .982.039 1.14.336 1.378.244.195.388.224 1.133.228l.696.003v-.819-.819h-.309-.309v.509.509h-.355c-.318 0-.367-.011-.464-.109-.107-.107-.108-.12-.108-.888s.002-.781.108-.888.126-.109.773-.109h.665v-.31-.31zm1.305 0v1.617 1.617h.994.994v-.31-.31h-.685-.685v-.331-.331l.674-.012.674-.012.013-.299.013-.299h-.687-.687v-.354-.354h.685.685v-.31-.31h-.994zm2.651 0v1.617 1.617l.718-.001c.602-.001.747-.014.897-.082.218-.099.49-.407.55-.622s.055-1.558-.007-1.807c-.067-.267-.385-.604-.633-.672-.097-.027-.48-.049-.85-.049zm-6.008 0l-.696.001c-.781.001-.931.041-1.191.315-.237.25-.278.442-.278 1.295 0 .417.021.835.047.928.06.216.322.508.549.612.147.067.295.081.872.082l.696.001v-.82-.819h-.309-.309v.509.51l-.342-.001c-.552-.002-.585-.06-.585-.995 0-.696.024-.825.173-.94.048-.037.279-.055.722-.055l.652-.001v-.31zm-9.189.62h.311c.272 0 .325.014.42.109.072.072.108.157.107.255-.003.273-.173.39-.57.39h-.268v-.377zm15.816 0h.329c.375 0 .523.052.593.206.029.064.049.386.049.795 0 .937-.031.988-.607.99l-.365.001v-.997z" fill="#fff"/></svg>